<svg xmlns="http://www.w3.org/2000/svg" viewBox="0 0 992 1092"><path fill="#505050" d="M866.66342 343.8058c-8.66667-.14-19.49333-.86667-32.48-2.18-26.03333-2.64-48.87366-6.33477-72.85-11.85-16.83973-3.87361-33.47399-8.82067-49.66-14.87-10.85122-4.05552-21.42071-8.9111-31.67-14.31-3.86675-2.03684-7.67676-4.22771-11.21-6.8-2.11682-1.5411-4.03965-3.33873-5.94-5.14-10.95935-8.76578-16.09781-19.74052-19.89777-32.96236-1.81534-6.37613-4.30223-19.41764-4.30223-19.41764l-.1-102.8c.0001-.33561.17873-.64726.47-.82L865.07342.21580797c.21062-.1216785.47462.026822.48.27z" style="fill:#a8a8a8;fill-opacity:1"/><path fill="#828282" d="M320.20342 738.3258c6.91265-7.19784 15.24379-12.66839 22.44-19.4725 2.74057-2.59125 5.39029-5.28657 7.8825-8.1175 1.52386-1.73097 2.9482-3.55067 4.3125-5.41 2.65151-3.61361 5.04361-7.4109 7.515-11.15 1.13892-1.72313 2.55568-3.30179 3.37-5.2 13.13748-30.62414 19.40752-64.11842 23.32289-97.21074 6.58225-55.63251-.10045-93.14129.0114-168.06167.0417-27.93961.1087-70.6826.17569-143.14759 0-1.74667.64667-2.96333 1.94-3.65 6.40667-3.38 11.50333-6.25333 15.29-8.62 7.66-4.78 12.66333-7.78 15.01-9 2.61333-1.35333 8.35667-4.63333 17.23-9.84 38.10667-22.36 76.12333-44.62333 114.05-66.79 11.63-6.79 19.98-12.09 31.33-18.3.20611-.11396.45902.0345.46.27.0667 6.71333 6.6634 215.94911.74 323.68-.80293 14.60314-1.31597 29.42328-4.91 43.6-3.49036 13.76778-8.58029 27.37652-15.98 39.5-9.89 16.20351-22.78431 30.76707-37.19 43.13-10.29835 8.83802-22.92077 14.53909-34.51 21.6-11.27588 6.87-168.2073 99.86424-172.49 102.19zM648.09053 279.2158c8.20815 19.39219 20.57705 37.21019 34.8567 52.6867 12.38831 13.42665 27.98193 23.60442 43.13198 33.8133 44.88096 30.2431 70.57744 41.47713 140.81421 80.82l124.65 73.18v232.52c-242.50199-142.05592-169.79159-99.74802-255.02-149.05-3.53088-2.04251-7.16996-3.90371-10.62-6.08-10.10878-6.37662-20.32371-12.72814-29.48-20.41-11.91777-9.99866-24.02627-20.34422-32.83-33.17-10.52702-15.33637-18.15602-32.90342-22.9-50.89-1.77757-6.73959-1.61484-13.85753-1.94-20.82-3.66273-78.42786-.1-235.54-.1-235.54 4.97613 13.92517 3.72474 29.44423 9.43711 42.94"/><path fill="#6a6a6a" d="m866.66342 343.8058.23 102.73c-92.14667-50.76418-98.37342-52.20916-144.7033-82.94132-28.08824-18.63187-41.69111-31.3285-58.3667-52.75868-.34951-.44917-12.54696-20.39653-16.44-31.62-2.73862-7.89531-5.23294-19.27389-4.69294-24.62722 2.31781 8.0593 5.83514 16.35725 10.55488 23.54883 2.60551 3.97007 6.2054 7.20598 9.60806 10.51839 1.87619 1.82643 3.82318 3.5989 5.94 5.14 3.53324 2.57229 7.34325 4.76316 11.21 6.8 10.24929 5.3989 20.81878 10.25448 31.67 14.31 16.18601 6.04933 32.82027 10.99639 49.66 14.87 23.97634 5.51523 48.40757 9.04811 72.85 11.85 10.78043 1.23579 23.81333 2.04 32.48 2.18M338.34391 722.59726c5.67333-6.7 7.13988-10.08381 9.72302-15.65818 3.63507-7.84436 6.68512-16.13309 7.96649-24.68328 2.32219-15.49531 1.41851-31.47417-.69-47-3.42133-25.19268-11.36671-49.63241-19.26-73.8-8.6995-29.80363-23.17956-57.30335-34.69656-85.97593 37.07154-21.40327 3.16454-2.13737 87.69156-51.65407.30798 58.07453 6.76021 116.63878.675 174.48-3.99606 30.87893-7.68842 63.54012-24.03 90.67-3.30885 5.57022-6.81076 11.03103-10.51 16.35-1.34711 1.93695-2.7097 3.87285-4.25 5.66-2.5006 2.90135-5.18835 5.65672-8.07 8.18-1.42907 1.25135-3.15618 2.48479-4.54951 3.43146"/><path fill="#505050" d="M301.39467 475.47205c5.56259 13.52356 5.19096 12.64202 8.29875 19.15375 9.39333 20.1 19.14824 43.34986 26.515 65.83 8.01443 24.45656 15.65845 49.29965 19.135 74.8 2.09288 15.35115 2.86765 31.095.95517 46.46967-.90805 7.2999-2.90911 14.5355-5.84517 21.28033-3.03899 6.98129-7.05942 13.64246-11.99903 19.43678-2.97667 3.49173-6.9618 5.97878-10.42097 8.99322-2.62104 2.28406 17.90194-15.68781-7.83 6.89l-87.19 51.81c-.76485.45597-1.71274.45981-2.47.01L.18342273 654.9758c-.50910829-.29717-.50910829-1.03283 0-1.33C301.92092 475.15687 30.030385 635.04474 301.39467 475.47205" style="fill:#a8a8a8;fill-opacity:1"/><path fill="#828282" d="M915.62342 773.9058c-5.50227-.93445-10.11675-4.19955-15.23-6.16-4.8396-1.75857-9.64339-3.61465-14.52-5.27-2.60834-.87108-5.2496-1.64155-7.89-2.41-2.64006-.76835-5.27298-1.57242-7.95-2.2-4.19758-.98404-8.41231-1.99858-12.7-2.45-6.7274-.70827-13.5307-.65736-20.29-.39-7.90868.31282-15.86596.7922-23.63 2.33-18.35302 3.63514-36.4681 9.00772-53.74 16.2-9.80216 4.08177-18.769 9.94054-28.01 15.17-43.71436 24.73785-101.04144 58.44957-129.74 76.64l-119.93 70.66c-.22279.12889-.49457.12889-.71 0l-194.32-113.3c-.35567-.20354-.35567-.71646 0-.92 86.45218-52.08736 172.25044-105.38499 259.85-155.56 8.19773-4.69547 16.24168-9.74028 24.86-13.61 8.62181-3.87128 17.40466-7.83149 26.7-9.54 25.73763-4.73065 52.61405-5.50382 78.49-1.6 7.70468 1.16238 15.01442 4.31286 22.19 7.35 7.14652 3.02485 13.84677 7.0184 20.64 10.77 89.68055 49.52665 184.05243 107.79096 195.93 114.29"/><path fill="#6a6a6a" d="M886.34217 762.63205c-9.17417-1.51875-18.24488-.48542-27.28875.50375-4.48264.49029-9.06508 1.02558-13.26 2.68-21.74719 8.57677-42.10321 21.40283-59.72 36.77-37.36714 32.59543-52.76081 60.68696-94.47 114.91l-89.68-52.13c46.11341-29.4673 86.02564-51.90215 129.74-76.64 9.241-5.22946 18.20784-11.08823 28.01-15.17 17.2719-7.19228 35.38698-12.56486 53.74-16.2 7.76404-1.5378 15.72132-2.01718 23.63-2.33 6.7593-.26736 13.5626-.31827 20.29.39 4.28769.45142 8.50959 1.43584 12.7 2.45 5.50473 1.33225 6.75857 1.63746 16.30875 4.76625"/><path fill="#505050" d="M885.90467 762.56955c4.74384.76975 9.0853 3.14173 13.57875 4.84625 5.42169 2.05663 3.80943 1.62775 16.14 6.49l75.92 44.42-.009 273.353c-99.85326-58.2685-199.93445-116.15758-299.931-174.183 9.32667-13.98 11.57247-18.19786 18.13-26.74 23.67253-30.83693 46.7203-62.99107 76.34-88.17 17.81149-15.14108 37.97281-28.19323 59.72-36.77 4.19492-1.65442 8.77801-2.18382 13.26-2.68 8.89805-.98505 18.01442-2.00014 26.85125-.56625" style="fill:#a8a8a8;fill-opacity:1"/></svg>